<svg xmlns="http://www.w3.org/2000/svg" width="752" height="32"><symbol id="icon-arrow_down" viewBox="0 0 32 32"><path fill="#fff" d="M15.385 24.863 3.499 10.599C2.11 8.932 3.295 6.4 5.466 6.4h21.069c2.17 0 3.356 2.531 1.967 4.199L16.616 24.863a.8.8 0 0 1-1.229 0z"/></symbol><symbol id="icon-arrow_left" viewBox="0 0 32 32"><path fill="none" stroke="#fff" stroke-linejoin="round" stroke-linecap="round" stroke-width="4.571" d="M22.857 29.714 9.143 16 22.857 2.286"/></symbol><symbol id="icon-bell_fill" viewBox="0 0 32 32"><path fill="#fff" d="M8.67 9.3a7.367 7.367 0 0 1 14.66 0l.382 3.822c.023.232.035.349.049.463a10.67 10.67 0 0 0 1.587 4.433c.062.097.127.194.256.389l1.148 1.722c1.048 1.573 1.573 2.359 1.343 2.993a1.32 1.32 0 0 1-.18.335c-.4.543-1.345.543-3.235.543H7.318c-1.89 0-2.835 0-3.235-.543a1.355 1.355 0 0 1-.18-.335c-.23-.634.294-1.42 1.343-2.993l1.148-1.722a17.3 17.3 0 0 0 .256-.389 10.66 10.66 0 0 0 1.587-4.433c.014-.114.026-.231.049-.463L8.668 9.3z"/><path fill="none" stroke="#fff" stroke-linecap="round" stroke-width="2.667" d="M13.424 27.506c.152.142.487.267.953.356S15.413 28 16 28s1.158-.048 1.623-.138.801-.215.953-.356"/><path fill="#f15b62" stroke="#fff" stroke-width="1.333" d="M27.333 9.333a4.667 4.667 0 1 1-9.334 0 4.667 4.667 0 0 1 9.334 0z"/></symbol><symbol id="icon-expand_menu" viewBox="0 0 32 32"><path fill="none" stroke-linecap="round" stroke-width="4" stroke="#000" d="M30 4H2M30 28H2M30 16H14"/></symbol><symbol id="icon-facebook" viewBox="0 0 32 32"><path fill="#004990" d="M32 16c0-8.837-7.163-16-16-16S0 7.163 0 16c0 7.986 5.851 14.605 13.5 15.806V20.625H9.437V16H13.5v-3.525c0-4.01 2.389-6.225 6.043-6.225 1.751 0 3.582.313 3.582.313v3.938h-2.018c-1.988 0-2.607 1.233-2.607 2.499v3.001h4.438l-.709 4.625h-3.728v11.181c7.649-1.2 13.5-7.819 13.5-15.806z"/></symbol><symbol id="icon-instagram" viewBox="0 0 32 32"><path fill="#004990" d="M16 0c8.831 0 16 7.169 16 16s-7.169 16-16 16S0 24.831 0 16 7.169 0 16 0zm0 6c-2.716 0-3.056.011-4.123.06-1.064.049-1.791.218-2.427.465-.658.256-1.215.598-1.771 1.153s-.898 1.114-1.153 1.771c-.247.636-.416 1.363-.465 2.427-.049 1.067-.06 1.407-.06 4.123s.011 3.056.06 4.123c.049 1.064.218 1.791.465 2.427.256.657.598 1.215 1.153 1.771s1.114.898 1.771 1.154c.636.247 1.363.416 2.427.465 1.067.049 1.407.06 4.123.06s3.056-.012 4.123-.06c1.064-.049 1.791-.218 2.427-.465.657-.256 1.215-.598 1.771-1.154s.898-1.114 1.154-1.771c.247-.636.416-1.363.465-2.427.049-1.067.06-1.407.06-4.123s-.012-3.056-.06-4.123c-.049-1.064-.218-1.791-.465-2.427-.256-.658-.598-1.215-1.154-1.771s-1.114-.898-1.771-1.153c-.636-.247-1.363-.416-2.427-.465C19.056 6.011 18.716 6 16 6zm0 1.802c2.67 0 2.986.01 4.041.058.975.045 1.504.207 1.857.344.467.181.8.398 1.15.748s.567.683.748 1.15c.137.352.3.882.344 1.857.048 1.055.058 1.371.058 4.041s-.01 2.986-.058 4.041c-.044.975-.207 1.504-.344 1.857-.181.467-.398.8-.748 1.15s-.683.567-1.15.748c-.352.137-.882.3-1.857.344-1.054.048-1.371.058-4.041.058s-2.986-.01-4.041-.058c-.975-.044-1.504-.207-1.857-.344-.467-.181-.8-.398-1.15-.748s-.567-.683-.748-1.15c-.137-.352-.3-.882-.344-1.857-.048-1.055-.058-1.371-.058-4.041s.01-2.986.058-4.041c.045-.975.207-1.504.344-1.857.181-.467.398-.8.748-1.15s.683-.567 1.15-.748c.352-.137.882-.3 1.857-.344 1.055-.048 1.371-.058 4.041-.058zm0 3.063a5.135 5.135 0 1 0 0 10.27 5.135 5.135 0 0 0 0-10.27zm0 8.468a3.333 3.333 0 1 1 0-6.665 3.333 3.333 0 0 1 0 6.665zm6.538-8.671a1.2 1.2 0 1 1-2.4 0 1.2 1.2 0 0 1 2.4 0z"/></symbol><symbol id="icon-playback" viewBox="0 0 32 32"><path d="M4.18 1.087v30.72l24.32-15.36L4.18 1.087z"/></symbol><symbol id="icon-search" viewBox="0 0 32 32"><path fill="none" stroke="#fff" stroke-width="2.667" d="M24 14.667a9.333 9.333 0 1 1-18.666 0 9.333 9.333 0 1 1 18.666 0z"/><path stroke="#fff" stroke-linecap="round" stroke-width="2.667" d="m26.667 26.667-4-4"/></symbol><symbol id="icon-twitter" viewBox="0 0 32 32"><path fill="#004990" d="M16 0c8.831 0 16 7.169 16 16s-7.169 16-16 16S0 24.831 0 16 7.169 0 16 0zm-2.818 24.51c7.08 0 10.951-5.867 10.951-10.951 0-.168 0-.335-.008-.495a7.9 7.9 0 0 0 1.924-1.995 7.828 7.828 0 0 1-2.211.607 3.846 3.846 0 0 0 1.692-2.131 7.795 7.795 0 0 1-2.443.934 3.83 3.83 0 0 0-2.81-1.213 3.85 3.85 0 0 0-3.847 3.847c0 .303.032.599.104.878A10.917 10.917 0 0 1 8.6 9.968a3.864 3.864 0 0 0-.519 1.932c0 1.333.678 2.514 1.716 3.201a3.772 3.772 0 0 1-1.74-.479v.048a3.854 3.854 0 0 0 3.089 3.776 3.825 3.825 0 0 1-1.74.064 3.843 3.843 0 0 0 3.592 2.674 7.734 7.734 0 0 1-5.699 1.588 10.72 10.72 0 0 0 5.883 1.74z"/></symbol><symbol id="icon-youtube" viewBox="0 0 32 32"><path fill="#004990" d="M16 0c8.831 0 16 7.169 16 16s-7.169 16-16 16S0 24.831 0 16 7.169 0 16 0zm9.582 11.186a2.504 2.504 0 0 0-1.768-1.768C22.254 9 16 9 16 9s-6.254 0-7.814.418c-.86.23-1.538.908-1.768 1.768C6 12.746 6 16 6 16s0 3.254.418 4.814c.23.86.908 1.538 1.768 1.768C9.746 23 16 23 16 23s6.254 0 7.814-.418a2.504 2.504 0 0 0 1.768-1.768C26 19.254 26 16 26 16s0-3.254-.418-4.814zM14 19v-6l5.196 3L14 19z"/></symbol></svg>