<svg xmlns="http://www.w3.org/2000/svg" width="752" height="32"><symbol id="icon-chat_vector-min" viewBox="0 0 32 32"><path fill="none" stroke="#898371" stroke-linejoin="round" stroke-linecap="round" stroke-width=".615" d="M10.587 21.428c-1.183.051-2.469-.359-2.966-.564l-4.406 2.681 1.286-4.593C2.032 17.313.472 14.854.472 12.071c0-4.9 4.938-8.878 11.024-8.878s10.715 3.739 11.006 8.435h-.377c-5.074 0-9.206 3.347-9.206 7.462 0 .615.086 1.212.257 1.776.977 3.262 4.612 5.686 8.932 5.686.926 0 1.817-.103 2.657-.325l4.303 2.561-1.183-3.91c2.074-1.366 3.411-3.467 3.411-5.806 0-3.074-2.28-5.703-5.555-6.847"/></symbol><symbol id="icon-eye_vector_white-min" viewBox="0 0 32 32"><path fill="#007690" opacity=".3" d="M22.047 22.047c-5.336 5.336-12.434 6.888-15.854 3.468S4.325 14.997 9.661 9.661c5.336-5.336 12.434-6.888 15.854-3.468s1.868 10.518-3.468 15.854z"/><path fill="none" stroke="#fff" stroke-width=".395" d="m7.485 16.898-.104-.108.104-.108c.213-.218.429-.427.649-.631l.012-.011a22.061 22.061 0 0 1 2.362-1.904l.072-.047c2.057-1.421 4.881-2.829 7.988-2.829s5.931 1.408 7.989 2.829a22.182 22.182 0 0 1 2.448 1.965l-.014-.013c.268.248.517.493.759.744l.006.006-.104.108c-.213.218-.429.427-.649.631l-.012.011a22.061 22.061 0 0 1-2.362 1.904l-.072.047c-2.057 1.421-4.881 2.829-7.988 2.829s-5.931-1.408-7.989-2.829a22.182 22.182 0 0 1-2.448-1.965l.014.013a17.419 17.419 0 0 1-.656-.639l-.003-.003z"/><path fill="none" stroke="#fff" stroke-width=".395" d="M22.321 16.79a3.556 3.556 0 1 1-7.112 0 3.556 3.556 0 0 1 7.112 0z"/><path fill="none" stroke="#fff" stroke-width=".395" d="M16.198 17.185a2.964 2.964 0 0 1 2.963-2.963"/></symbol><symbol id="icon-heart_vector-min" viewBox="0 0 32 32"><path fill="none" stroke="#907272" stroke-linejoin="round" stroke-linecap="round" stroke-width=".6" d="M13.312 29.018c7.412-5.448 13.561-10.153 12.83-18.674-.716-8.157-8.601-8.157-10.823-6.992-3.455 1.821-5.591 4.792-2.021 7.778 3.57-2.986 1.434-5.987-2.021-7.778C9.012 2.186 1.156 2.186.454 10.344-.22 17.976 5.6 23.439 9.93 26.644"/><path fill="#deb3b3" d="m27.866 8.21-2.913-.208-.624 9.364 1.456-1.04 1.665-3.329.416-4.786z"/><path fill="none" stroke="#907272" stroke-linecap="round" stroke-width=".6" d="M18.811 17.157c9.006 4.751 12.869-11.354 12.47-10.005-1.538.863-3.119.856-5.86.668-5.428-.374-7.715 3.906-6.463 7.205.378-1.045 1.682-3.097 3.875-2.946"/></symbol><symbol id="icon-house_vector-min" viewBox="0 0 32 32"><path fill="none" stroke="#62776d" stroke-linejoin="round" stroke-linecap="round" stroke-width=".716" d="M4.165 14.178v11.988L.767 27.879v3.425h30.582v-3.425l-3.398-1.713V12.465l3.398-1.713L16.432.477.767 10.752h23.786"/></symbol><symbol id="icon-human_vector_white-min" viewBox="0 0 32 32"><path fill="#510090" opacity=".3" d="M22.047 22.047c-5.336 5.336-12.434 6.888-15.854 3.468S4.325 14.997 9.661 9.661c5.336-5.336 12.434-6.888 15.854-3.468s1.868 10.518-3.468 15.854z"/><path fill="none" stroke="#fff" stroke-linejoin="round" stroke-linecap="round" stroke-width=".395" d="M12.589 23.494c.843-2.484.927-8.964-5.478-15.012 1.264.144 4.298 1.253 6.321 4.536m5.136.119c2.149-3.37 5.373-4.508 6.716-4.655-4.823 4.399-6.183 9.02-6.247 12.247"/><path fill="none" stroke="#fff" stroke-width=".395" d="M18.37 10.654a2.37 2.37 0 1 1-4.74 0 2.37 2.37 0 0 1 4.74 0z"/></symbol><symbol id="icon-human_vector-min" viewBox="0 0 32 32"><path fill="#e9bbf4" d="M22.25 22.25c-5.385 5.385-12.548 6.952-16 3.5s-1.885-10.615 3.5-16 12.548-6.952 16-3.5 1.885 10.615-3.5 16z"/><path fill="none" stroke="#ac78a7" stroke-linejoin="round" stroke-linecap="round" stroke-width=".4" d="M12.705 23.709c.851-2.507.935-9.046-5.529-15.15 1.276.145 4.338 1.264 6.379 4.578m5.184.12c2.169-3.401 5.422-4.549 6.778-4.698-4.867 4.439-6.24 9.103-6.305 12.359"/><path fill="none" stroke="#ac78a7" stroke-width=".4" d="M18.538 10.752a2.391 2.391 0 1 1-4.782 0 2.391 2.391 0 0 1 4.782 0z"/></symbol><symbol id="icon-info_vector_white-min" viewBox="0 0 32 32"><path fill="#004990" opacity=".3" d="M22.047 22.047c-5.336 5.336-12.434 6.888-15.854 3.468S4.325 14.997 9.661 9.661c5.336-5.336 12.434-6.888 15.854-3.468s1.868 10.518-3.468 15.854z"/><path fill="#fff" d="M3.358 12.827h18.568a.198.198 0 1 1 0 .396H3.358a.198.198 0 1 1 0-.396zM3.358 15.592h18.568a.198.198 0 1 1 0 .396H3.358a.198.198 0 1 1 0-.396zM11.259 18.358h10.667a.198.198 0 1 1 0 .396H11.259a.198.198 0 1 1 0-.396z"/></symbol><symbol id="icon-knot_vector-min" viewBox="0 0 32 32"><path fill="none" stroke="#9288d2" stroke-linejoin="round" stroke-width=".565" d="m26.847 24.907-4.578 5.781L10.124 12.58c-2.002-2.985-1.886-6.968.29-10.018l16.433 22.345z"/><path fill="none" stroke="#9288d2" stroke-linejoin="round" stroke-width=".565" d="m20.253 15.953 2.377-3.373c2.003-2.986 1.886-6.969-.29-10.018l-5.965 7.962m-5.166 7.173-5.302 7.211 4.578 5.781 5.094-7.597"/><path fill="none" stroke="#9288d2" stroke-miterlimit="10" stroke-width=".565" d="M10.414 2.562s5.09-2.922 11.923 0m-7.746 4.007s1.241-1.24 3.413 0"/></symbol><symbol id="icon-location_vector-min" viewBox="0 0 32 32"><path fill="none" stroke="#748168" stroke-linejoin="round" stroke-linecap="round" stroke-width=".686" d="M21.099 7.66s-1.752-2.232-4.684-2.059c-4.303.277-5.656 3.409-5.656 6.004s1.735 5.191 5.187 6.056c3.452.865 9.594-.779 10.374-6.921C27.083 4.598 23.076.358 15.946.358S5.572 6.017 5.572 11.692c0 11.334 10.374 19.812 10.374 19.812s5.239-4.758 6.905-10.382"/></symbol><symbol id="icon-pencil_vector-min" viewBox="0 0 32 32"><path fill="none" stroke="#608583" stroke-linejoin="round" stroke-linecap="round" stroke-width=".676" d="M29.877 31.521H1.711l7.042-3.533 18.326-21.71c.26-.304.418-.701.418-1.136 0-.489-.2-.931-.523-1.249h0l-2.782-2.791a1.755 1.755 0 0 0-2.587.105L3.473 22.688l-1.76 5.299"/></symbol><symbol id="icon-pulse_vector_white-min" viewBox="0 0 32 32"><path fill="none" stroke="#fff" stroke-linejoin="round" stroke-linecap="round" stroke-width=".478" d="M.468 16.701h10.269l5.015-7.642v14.09l1.91-6.448h14.09"/></symbol><symbol id="icon-search_vector-min" viewBox="0 0 32 32"><path fill="none" stroke="#515576" stroke-width=".657" d="M29.868 14.653c0 4.63-2.196 8.747-5.606 11.367a14.168 14.168 0 0 1-8.696 2.958h-.024.001c-7.912 0-14.325-6.414-14.325-14.325S7.631.328 15.542.328s14.325 6.414 14.325 14.325z"/><path fill="none" stroke="#515576" stroke-linecap="round" stroke-width=".657" d="m25.1 25.484 6.052 6.052"/><path fill="none" stroke="#515576" stroke-width=".657" d="M10.755 22.936a2.857 2.857 0 1 1-5.714 0 2.857 2.857 0 0 1 5.714 0z"/><path fill="none" stroke="#515576" stroke-width="1.314" d="M9.172 22.936v-.001a1.274 1.274 0 0 0-1.937-1.088l.006-.003.238.395a.813.813 0 0 1 1.232.697h.461z"/><path fill="none" stroke="#515576" stroke-width=".657" d="M11.312 14.573a2.857 2.857 0 1 1-5.714 0 2.857 2.857 0 0 1 5.714 0z"/><path fill="none" stroke="#515576" stroke-width="1.314" d="M9.73 14.573v-.001a1.274 1.274 0 0 0-1.937-1.088l.006-.003.238.395a.813.813 0 0 1 1.233.696h.461z"/><path fill="none" stroke="#515576" stroke-width=".657" d="M12.627 7.128a2.857 2.857 0 1 1-5.714 0 2.857 2.857 0 0 1 5.714 0z"/><path fill="none" stroke="#515576" stroke-width="1.314" d="M11.044 7.128A1.274 1.274 0 0 0 9.107 6.04l.006-.003.238.395a.813.813 0 0 1 1.232.697h.461z"/><path fill="none" stroke="#515576" stroke-width=".657" d="M20.072 3.623a2.857 2.857 0 1 1-5.714 0 2.857 2.857 0 0 1 5.714 0z"/><path fill="none" stroke="#515576" stroke-width="1.314" d="M18.49 3.623v-.001a1.274 1.274 0 0 0-1.937-1.088l.006-.003.238.395a.813.813 0 0 1 1.232.697h.461z"/><path fill="none" stroke="#515576" stroke-width=".657" d="M26.643 11.507a2.857 2.857 0 1 1-5.714 0 2.857 2.857 0 0 1 5.714 0z"/><path fill="none" stroke="#515576" stroke-width="1.314" d="M25.06 11.507a1.274 1.274 0 0 0-1.936-1.089l.006-.003.237.395a.813.813 0 0 1 1.233.696h.461z"/><path fill="none" stroke="#515576" stroke-width=".657" d="M19.196 11.507a2.857 2.857 0 1 1-5.714 0 2.857 2.857 0 0 1 5.714 0z"/><path fill="none" stroke="#515576" stroke-width="1.314" d="M17.614 11.507a1.274 1.274 0 0 0-1.937-1.088l.006-.003.238.395a.813.813 0 0 1 1.233.696v.001h.461z"/><path fill="none" stroke="#515576" stroke-width=".657" d="M17.882 18.954a2.857 2.857 0 1 1-5.714 0 2.857 2.857 0 0 1 5.714 0z"/><path fill="none" stroke="#515576" stroke-width="1.314" d="M16.3 18.954a1.274 1.274 0 0 0-1.937-1.088l.006-.003.237.395a.813.813 0 0 1 1.233.696h.461z"/></symbol></svg>