<?xml version="1.0" encoding="utf-8"?>
<!-- Generated by IcoMoon.io -->
<svg version="1.1" xmlns="http://www.w3.org/2000/svg" xmlns:xlink="http://www.w3.org/1999/xlink" width="752" height="32" viewBox="0 0 752 32">
<symbol id="icon-arrow_down" width="32" height="32" viewBox="0 0 32 32" x="0" y="0">
<path fill="#fff" d="M15.385 24.863l-11.886-14.264c-1.389-1.667-0.204-4.199 1.967-4.199h21.069c2.17 0 3.356 2.531 1.967 4.199l-11.886 14.264c-0.32 0.384-0.909 0.384-1.229 0z"></path>
</symbol>
<symbol id="icon-arrow_left"  viewBox="0 0 32 32">
<path fill="none"  stroke-linejoin="round" stroke-linecap="round" stroke-miterlimit="4" stroke-width="4.5714" d="M22.857 29.714l-13.714-13.714 13.714-13.714"></path>
</symbol>
<symbol id="icon-bell_fill" viewBox="0 0 32 32" >
<path  d="M8.67 9.3c0.377-3.766 3.545-6.634 7.33-6.634s6.953 2.868 7.33 6.634l0.382 3.822c0.023 0.232 0.035 0.349 0.049 0.463 0.192 1.578 0.735 3.092 1.587 4.433 0.062 0.097 0.127 0.194 0.256 0.389l1.148 1.722c1.048 1.573 1.573 2.359 1.343 2.993-0.044 0.12-0.104 0.233-0.18 0.335-0.4 0.543-1.345 0.543-3.235 0.543h-17.362c-1.89 0-2.835 0-3.235-0.543-0.076-0.103-0.136-0.216-0.18-0.335-0.23-0.634 0.294-1.42 1.343-2.993l1.148-1.722c0.13-0.194 0.194-0.291 0.256-0.389 0.853-1.341 1.395-2.856 1.587-4.433 0.014-0.114 0.026-0.231 0.049-0.463l0.382-3.822z"></path>
<path   stroke-linejoin="miter" stroke-linecap="round" stroke-miterlimit="4" stroke-width="2.6667" d="M13.424 27.506c0.152 0.142 0.487 0.267 0.953 0.356s1.036 0.138 1.623 0.138c0.587 0 1.158-0.048 1.623-0.138s0.801-0.215 0.953-0.356"></path>
<path fill="#f15b62"  stroke-linejoin="miter" stroke-linecap="butt" stroke-miterlimit="4" stroke-width="1.3333" d="M27.333 9.333c0 2.577-2.089 4.667-4.667 4.667s-4.667-2.089-4.667-4.667c0-2.577 2.089-4.667 4.667-4.667s4.667 2.089 4.667 4.667z"></path>
</symbol>
<symbol id="icon-expand_menu" viewBox="0 0 32 32" >
<path  stroke-linejoin="miter" stroke-linecap="round" stroke-miterlimit="4" stroke-width="4"  d="M30 4h-28"></path>
<path fill="none" stroke-linejoin="miter" stroke-linecap="round" stroke-miterlimit="4" stroke-width="4"  d="M30 28h-28"></path>
<path fill="none" stroke-linejoin="miter" stroke-linecap="round" stroke-miterlimit="4" stroke-width="4"  d="M30 16h-16"></path>
</symbol>
<symbol id="icon-facebook" viewBox="0 0 32 32"  >
<path  d="M32 16c0-8.837-7.163-16-16-16s-16 7.163-16 16c0 7.986 5.851 14.605 13.5 15.806v-11.181h-4.063v-4.625h4.063v-3.525c0-4.010 2.389-6.225 6.043-6.225 1.751 0 3.582 0.313 3.582 0.313v3.938h-2.018c-1.988 0-2.607 1.233-2.607 2.499v3.001h4.438l-0.709 4.625h-3.728v11.181c7.649-1.2 13.5-7.819 13.5-15.806z"></path>
</symbol>
<symbol id="icon-instagram"  viewBox="0 0 32 32" >
<path  d="M16 0c8.831 0 16 7.169 16 16s-7.169 16-16 16c-8.831 0-16-7.169-16-16s7.169-16 16-16zM16 6c-2.716 0-3.056 0.011-4.123 0.060-1.064 0.049-1.791 0.218-2.427 0.465-0.658 0.256-1.215 0.598-1.771 1.153s-0.898 1.114-1.153 1.771c-0.247 0.636-0.416 1.363-0.465 2.427-0.049 1.067-0.060 1.407-0.060 4.123s0.011 3.056 0.060 4.123c0.049 1.064 0.218 1.791 0.465 2.427 0.256 0.657 0.598 1.215 1.153 1.771s1.114 0.898 1.771 1.154c0.636 0.247 1.363 0.416 2.427 0.465 1.067 0.049 1.407 0.060 4.123 0.060s3.056-0.012 4.123-0.060c1.064-0.049 1.791-0.218 2.427-0.465 0.657-0.256 1.215-0.598 1.771-1.154s0.898-1.114 1.154-1.771c0.247-0.636 0.416-1.363 0.465-2.427 0.049-1.067 0.060-1.407 0.060-4.123s-0.012-3.056-0.060-4.123c-0.049-1.064-0.218-1.791-0.465-2.427-0.256-0.658-0.598-1.215-1.154-1.771s-1.114-0.898-1.771-1.153c-0.636-0.247-1.363-0.416-2.427-0.465-1.067-0.049-1.407-0.060-4.123-0.060zM16 7.802c2.67 0 2.986 0.010 4.041 0.058 0.975 0.045 1.504 0.207 1.857 0.344 0.467 0.181 0.8 0.398 1.15 0.748s0.567 0.683 0.748 1.15c0.137 0.352 0.3 0.882 0.344 1.857 0.048 1.055 0.058 1.371 0.058 4.041s-0.010 2.986-0.058 4.041c-0.044 0.975-0.207 1.504-0.344 1.857-0.181 0.467-0.398 0.8-0.748 1.15s-0.683 0.567-1.15 0.748c-0.352 0.137-0.882 0.3-1.857 0.344-1.054 0.048-1.371 0.058-4.041 0.058s-2.986-0.010-4.041-0.058c-0.975-0.044-1.504-0.207-1.857-0.344-0.467-0.181-0.8-0.398-1.15-0.748s-0.567-0.683-0.748-1.15c-0.137-0.352-0.3-0.882-0.344-1.857-0.048-1.055-0.058-1.371-0.058-4.041s0.010-2.986 0.058-4.041c0.045-0.975 0.207-1.504 0.344-1.857 0.181-0.467 0.398-0.8 0.748-1.15s0.683-0.567 1.15-0.748c0.352-0.137 0.882-0.3 1.857-0.344 1.055-0.048 1.371-0.058 4.041-0.058zM16 10.865c-2.836 0-5.135 2.299-5.135 5.135s2.299 5.135 5.135 5.135c2.836 0 5.135-2.299 5.135-5.135s-2.299-5.135-5.135-5.135zM16 19.333c-1.841 0-3.333-1.492-3.333-3.333s1.492-3.333 3.333-3.333c1.841 0 3.333 1.492 3.333 3.333s-1.492 3.333-3.333 3.333zM22.538 10.662c0 0.663-0.537 1.2-1.2 1.2s-1.2-0.537-1.2-1.2c0-0.663 0.537-1.2 1.2-1.2s1.2 0.537 1.2 1.2z"></path>
</symbol>
<symbol id="icon-playback" width="32" height="32" viewBox="0 0 32 32">
<path d="M4.18 1.087v30.72l24.32-15.36-24.32-15.36z"></path>
</symbol>
<symbol id="icon-search"  viewBox="0 0 32 32">
<path fill="none"  stroke-linejoin="miter" stroke-linecap="butt" stroke-miterlimit="4" stroke-width="2.6667" d="M24 14.667c0 5.155-4.179 9.333-9.333 9.333s-9.333-4.179-9.333-9.333c0-5.155 4.179-9.333 9.333-9.333s9.333 4.179 9.333 9.333z"></path>
<path   stroke-linejoin="miter" stroke-linecap="round" stroke-miterlimit="4" stroke-width="2.6667" d="M26.667 26.667l-4-4"></path>
</symbol>
<symbol id="icon-twitter"  viewBox="0 0 32 32"  y="0">
<path  d="M16 0c8.831 0 16 7.169 16 16s-7.169 16-16 16c-8.831 0-16-7.169-16-16s7.169-16 16-16zM13.182 24.51c7.080 0 10.951-5.867 10.951-10.951 0-0.168 0-0.335-0.008-0.495 0.75-0.543 1.405-1.221 1.924-1.995-0.686 0.303-1.429 0.511-2.211 0.607 0.798-0.479 1.405-1.229 1.692-2.131-0.742 0.439-1.564 0.758-2.443 0.934-0.702-0.75-1.7-1.213-2.81-1.213-2.123 0-3.847 1.724-3.847 3.847 0 0.303 0.032 0.599 0.104 0.878-3.201-0.16-6.035-1.692-7.934-4.023-0.327 0.567-0.519 1.229-0.519 1.932 0 1.333 0.678 2.514 1.716 3.201-0.631-0.016-1.221-0.191-1.74-0.479v0.048c0 1.868 1.325 3.416 3.089 3.776-0.319 0.088-0.662 0.136-1.014 0.136-0.248 0-0.487-0.024-0.726-0.072 0.487 1.533 1.908 2.642 3.592 2.674-1.317 1.030-2.977 1.644-4.781 1.644-0.311 0-0.615-0.016-0.918-0.056 1.684 1.102 3.712 1.74 5.883 1.74z"></path>
</symbol>
<symbol id="icon-youtube"  viewBox="0 0 32 32"  y="0">
<path  d="M16 0c8.831 0 16 7.169 16 16s-7.169 16-16 16c-8.831 0-16-7.169-16-16s7.169-16 16-16zM25.582 11.186c-0.23-0.861-0.908-1.538-1.768-1.768-1.56-0.418-7.814-0.418-7.814-0.418s-6.254 0-7.814 0.418c-0.86 0.23-1.538 0.908-1.768 1.768-0.418 1.56-0.418 4.814-0.418 4.814s0 3.254 0.418 4.814c0.23 0.86 0.908 1.538 1.768 1.768 1.56 0.418 7.814 0.418 7.814 0.418s6.254 0 7.814-0.418c0.861-0.23 1.538-0.908 1.768-1.768 0.418-1.56 0.418-4.814 0.418-4.814s0-3.254-0.418-4.814zM14 19v-6l5.196 3-5.196 3z"></path>
</symbol>
</svg>
