<?xml version="1.0" encoding="utf-8"?>
<!-- Generated by IcoMoon.io -->
<svg version="1.1" xmlns="http://www.w3.org/2000/svg" xmlns:xlink="http://www.w3.org/1999/xlink" width="752" height="32" viewBox="0 0 752 32">
<symbol id="icon-chat_vector-min" viewBox="0 0 32 32" >
<path fill="none" stroke="#898371" stroke-linejoin="round" stroke-linecap="round" stroke-miterlimit="4" stroke-width="0.6154" d="M10.587 21.428c-1.183 0.051-2.469-0.359-2.966-0.564l-4.406 2.681 1.286-4.593c-2.469-1.639-4.029-4.098-4.029-6.881 0-4.9 4.938-8.878 11.024-8.878s10.715 3.739 11.006 8.435h-0.377c-5.074 0-9.206 3.347-9.206 7.462 0 0.615 0.086 1.212 0.257 1.776 0.977 3.262 4.612 5.686 8.932 5.686 0.926 0 1.817-0.103 2.657-0.325l4.303 2.561-1.183-3.91c2.074-1.366 3.411-3.467 3.411-5.806 0-3.074-2.28-5.703-5.555-6.847"></path>
</symbol>
<symbol id="icon-eye_vector_white-min"  viewBox="0 0 32 32" y="0">
<path fill="#007690" opacity="0.3" d="M22.047 22.047c-5.336 5.336-12.434 6.888-15.854 3.468s-1.868-10.518 3.468-15.854c5.336-5.336 12.434-6.888 15.854-3.468s1.868 10.518-3.468 15.854z"></path>
<path fill="none" stroke="#fff" stroke-linejoin="miter" stroke-linecap="butt" stroke-miterlimit="4" stroke-width="0.3951" d="M7.485 16.898l-0.104-0.108 0.104-0.108c0.213-0.218 0.429-0.427 0.649-0.631l0.012-0.011c0.732-0.679 1.526-1.32 2.362-1.904l0.072-0.047c2.057-1.421 4.881-2.829 7.988-2.829s5.931 1.408 7.989 2.829c0.908 0.632 1.702 1.273 2.448 1.965l-0.014-0.013c0.268 0.248 0.517 0.493 0.759 0.744l0.006 0.006-0.104 0.108c-0.213 0.218-0.429 0.427-0.649 0.631l-0.012 0.011c-0.732 0.679-1.526 1.32-2.362 1.904l-0.072 0.047c-2.057 1.421-4.881 2.829-7.988 2.829s-5.931-1.408-7.989-2.829c-0.908-0.632-1.702-1.273-2.448-1.965l0.014 0.013c-0.232-0.215-0.447-0.424-0.656-0.639l-0.003-0.003z"></path>
<path fill="none" stroke="#fff" stroke-linejoin="miter" stroke-linecap="butt" stroke-miterlimit="4" stroke-width="0.3951" d="M22.321 16.79c0 1.964-1.592 3.556-3.556 3.556s-3.556-1.592-3.556-3.556c0-1.964 1.592-3.556 3.556-3.556s3.556 1.592 3.556 3.556z"></path>
<path fill="none" stroke="#fff" stroke-linejoin="miter" stroke-linecap="butt" stroke-miterlimit="4" stroke-width="0.3951" d="M16.198 17.185c0-1.636 1.327-2.963 2.963-2.963v0"></path>
</symbol>
<symbol id="icon-heart_vector-min"  viewBox="0 0 32 32" >
<path fill="none" stroke="#907272" stroke-linejoin="round" stroke-linecap="round" stroke-miterlimit="4" stroke-width="0.6" d="M13.312 29.018c7.412-5.448 13.561-10.153 12.83-18.674-0.716-8.157-8.601-8.157-10.823-6.992-3.455 1.821-5.591 4.792-2.021 7.778 3.57-2.986 1.434-5.987-2.021-7.778-2.265-1.166-10.121-1.166-10.823 6.992-0.674 7.632 5.146 13.095 9.476 16.3"></path>
<path fill="#deb3b3" stroke="#DEB3B3" d="M27.866 8.21l-2.913-0.208-0.624 9.364 1.456-1.040 1.665-3.329 0.416-4.786z"></path>
<path fill="none" stroke="#907272" stroke-linejoin="miter" stroke-linecap="round" stroke-miterlimit="4" stroke-width="0.6" d="M18.811 17.157c9.006 4.751 12.869-11.354 12.47-10.005-1.538 0.863-3.119 0.856-5.86 0.668-5.428-0.374-7.715 3.906-6.463 7.205 0.378-1.045 1.682-3.097 3.875-2.946"></path>
</symbol>
<symbol id="icon-house_vector-min" viewBox="0 0 32 32" >
<path fill="none" stroke="#62776d" stroke-linejoin="round" stroke-linecap="round" stroke-miterlimit="4" stroke-width="0.7164" d="M4.165 14.178v11.988l-3.398 1.713v3.425h30.582v-3.425l-3.398-1.713v-13.701l3.398-1.713-14.917-10.275-15.665 10.275h23.786"></path>
</symbol>
<symbol id="icon-human_vector_white-min"  viewBox="0 0 32 32">
<path fill="#510090" opacity="0.3" d="M22.047 22.047c-5.336 5.336-12.434 6.888-15.854 3.468s-1.868-10.518 3.468-15.854c5.336-5.336 12.434-6.888 15.854-3.468s1.868 10.518-3.468 15.854z"></path>
<path fill="none" stroke="#fff" stroke-linejoin="round" stroke-linecap="round" stroke-miterlimit="4" stroke-width="0.3951" d="M12.589 23.494c0.843-2.484 0.927-8.964-5.478-15.012 1.264 0.144 4.298 1.253 6.321 4.536M18.568 13.137c2.149-3.37 5.373-4.508 6.716-4.655-4.823 4.399-6.183 9.020-6.247 12.247"></path>
<path fill="none" stroke="#fff" stroke-linejoin="miter" stroke-linecap="butt" stroke-miterlimit="4" stroke-width="0.3951" d="M18.37 10.654c0 1.309-1.061 2.37-2.37 2.37s-2.37-1.061-2.37-2.37c0-1.309 1.061-2.37 2.37-2.37s2.37 1.061 2.37 2.37z"></path>
</symbol>
<symbol id="icon-human_vector-min"  viewBox="0 0 32 32" >
<path fill="#e9bbf4" d="M22.25 22.25c-5.385 5.385-12.548 6.952-16 3.5s-1.885-10.615 3.5-16c5.385-5.385 12.548-6.952 16-3.5s1.885 10.615-3.5 16z"></path>
<path fill="none" stroke="#ac78a7" stroke-linejoin="round" stroke-linecap="round" stroke-miterlimit="4" stroke-width="0.4" d="M12.705 23.709c0.851-2.507 0.935-9.046-5.529-15.15 1.276 0.145 4.338 1.264 6.379 4.578M18.739 13.257c2.169-3.401 5.422-4.549 6.778-4.698-4.867 4.439-6.24 9.103-6.305 12.359"></path>
<path fill="none" stroke="#ac78a7" stroke-linejoin="miter" stroke-linecap="butt" stroke-miterlimit="4" stroke-width="0.4" d="M18.538 10.752c0 1.321-1.071 2.391-2.391 2.391s-2.391-1.071-2.391-2.391c0-1.321 1.071-2.391 2.391-2.391s2.391 1.071 2.391 2.391z"></path>
</symbol>
<symbol id="icon-info_vector_white-min"  viewBox="0 0 32 32">
<path fill="#004990" opacity="0.3" d="M22.047 22.047c-5.336 5.336-12.434 6.888-15.854 3.468s-1.868-10.518 3.468-15.854c5.336-5.336 12.434-6.888 15.854-3.468s1.868 10.518-3.468 15.854z"></path>
<path fill="#fff" d="M3.358 12.827h18.568c0.109 0 0.198 0.088 0.198 0.198s-0.088 0.198-0.198 0.198h-18.568c-0.109 0-0.198-0.088-0.198-0.198s0.088-0.198 0.198-0.198z"></path>
<path fill="#fff" d="M3.358 15.592h18.568c0.109 0 0.198 0.088 0.198 0.198s-0.088 0.198-0.198 0.198h-18.568c-0.109 0-0.198-0.088-0.198-0.198s0.088-0.198 0.198-0.198z"></path>
<path fill="#fff" d="M11.259 18.358h10.667c0.109 0 0.198 0.088 0.198 0.198s-0.088 0.198-0.198 0.198h-10.667c-0.109 0-0.198-0.088-0.198-0.198s0.088-0.198 0.198-0.198z"></path>
</symbol>
<symbol id="icon-knot_vector-min"  viewBox="0 0 32 32" >
<path fill="none" stroke="#9288d2" stroke-linejoin="round" stroke-linecap="butt" stroke-miterlimit="4" stroke-width="0.5647" d="M26.847 24.907l-4.578 5.781-12.145-18.108c-2.002-2.985-1.886-6.968 0.29-10.018l16.433 22.345z"></path>
<path fill="none" stroke="#9288d2" stroke-linejoin="round" stroke-linecap="butt" stroke-miterlimit="4" stroke-width="0.5647" d="M20.253 15.953l2.377-3.373c2.003-2.986 1.886-6.969-0.29-10.018l-5.965 7.962M11.209 17.697l-5.302 7.211 4.578 5.781 5.094-7.597"></path>
<path fill="none" stroke="#9288d2" stroke-linejoin="miter" stroke-linecap="butt" stroke-miterlimit="10" stroke-width="0.5647" d="M10.414 2.562s5.090-2.922 11.923 0M14.591 6.569s1.241-1.24 3.413 0"></path>
</symbol>
<symbol id="icon-location_vector-min"  viewBox="0 0 32 32" >
<path fill="none" stroke="#748168" stroke-linejoin="round" stroke-linecap="round" stroke-miterlimit="4" stroke-width="0.6857" d="M21.099 7.66s-1.752-2.232-4.684-2.059c-4.303 0.277-5.656 3.409-5.656 6.004s1.735 5.191 5.187 6.056c3.452 0.865 9.594-0.779 10.374-6.921 0.763-6.142-3.244-10.382-10.374-10.382s-10.374 5.659-10.374 11.334c0 11.334 10.374 19.812 10.374 19.812s5.239-4.758 6.905-10.382"></path>
</symbol>
<symbol id="icon-pencil_vector-min" viewBox="0 0 32 32" >
<path fill="none" stroke="#608583" stroke-linejoin="round" stroke-linecap="round" stroke-miterlimit="4" stroke-width="0.6761" d="M29.877 31.521h-28.166l7.042-3.533 18.326-21.71c0.26-0.304 0.418-0.701 0.418-1.136 0-0.489-0.2-0.931-0.523-1.249l-0-0-2.782-2.791c-0.722-0.725-1.919-0.689-2.587 0.105l-18.132 21.481-1.76 5.299"></path>
</symbol>
<symbol id="icon-pulse_vector_white-min" viewBox="0 0 32 32" >
<path fill="none" stroke="#fff" stroke-linejoin="round" stroke-linecap="round" stroke-miterlimit="4" stroke-width="0.4776" d="M0.468 16.701h10.269l5.015-7.642v14.090l1.91-6.448h14.090"></path>
</symbol>
<symbol id="icon-search_vector-min"  viewBox="0 0 32 32" >
<path fill="none" stroke="#515576" stroke-linejoin="miter" stroke-linecap="butt" stroke-miterlimit="4" stroke-width="0.6572" d="M29.868 14.653c0 4.63-2.196 8.747-5.606 11.367-2.38 1.845-5.408 2.958-8.696 2.958-0.008 0-0.016 0-0.024-0h0.001c-7.912 0-14.325-6.414-14.325-14.325s6.413-14.325 14.324-14.325 14.325 6.414 14.325 14.325z"></path>
<path fill="none" stroke="#515576" stroke-linejoin="miter" stroke-linecap="round" stroke-miterlimit="4" stroke-width="0.6572" d="M25.1 25.484l6.052 6.052"></path>
<path fill="none" stroke="#515576" stroke-linejoin="miter" stroke-linecap="butt" stroke-miterlimit="4" stroke-width="0.6572" d="M10.755 22.936c0 1.578-1.279 2.857-2.857 2.857s-2.857-1.279-2.857-2.857c0-1.578 1.279-2.857 2.857-2.857s2.857 1.279 2.857 2.857z"></path>
<path fill="none" stroke="#515576" stroke-linejoin="miter" stroke-linecap="butt" stroke-miterlimit="4" stroke-width="1.3139" d="M9.172 22.936c0-0 0-0 0-0.001 0-0.704-0.57-1.274-1.274-1.274-0.243 0-0.47 0.068-0.663 0.186l0.006-0.003 0.238 0.395c0.12-0.073 0.264-0.116 0.419-0.116 0.449 0 0.813 0.364 0.813 0.813v0h0.461z"></path>
<path fill="none" stroke="#515576" stroke-linejoin="miter" stroke-linecap="butt" stroke-miterlimit="4" stroke-width="0.6572" d="M11.312 14.573c0 1.578-1.279 2.857-2.857 2.857s-2.857-1.279-2.857-2.857c0-1.578 1.279-2.857 2.857-2.857s2.857 1.279 2.857 2.857z"></path>
<path fill="none" stroke="#515576" stroke-linejoin="miter" stroke-linecap="butt" stroke-miterlimit="4" stroke-width="1.3139" d="M9.73 14.573c0-0 0-0 0-0.001 0-0.704-0.57-1.274-1.274-1.274-0.243 0-0.47 0.068-0.663 0.186l0.006-0.003 0.238 0.395c0.12-0.073 0.265-0.117 0.42-0.117 0.449 0 0.813 0.364 0.813 0.813 0 0 0 0 0 0v-0h0.461z"></path>
<path fill="none" stroke="#515576" stroke-linejoin="miter" stroke-linecap="butt" stroke-miterlimit="4" stroke-width="0.6572" d="M12.627 7.128c0 1.578-1.279 2.857-2.857 2.857s-2.857-1.279-2.857-2.857c0-1.578 1.279-2.857 2.857-2.857s2.857 1.279 2.857 2.857z"></path>
<path fill="none" stroke="#515576" stroke-linejoin="miter" stroke-linecap="butt" stroke-miterlimit="4" stroke-width="1.3139" d="M11.044 7.128c-0-0.704-0.571-1.274-1.274-1.274-0.243 0-0.47 0.068-0.663 0.186l0.006-0.003 0.238 0.395c0.12-0.073 0.264-0.116 0.419-0.116 0.449 0 0.813 0.364 0.813 0.813v0h0.461z"></path>
<path fill="none" stroke="#515576" stroke-linejoin="miter" stroke-linecap="butt" stroke-miterlimit="4" stroke-width="0.6572" d="M20.072 3.623c0 1.578-1.279 2.857-2.857 2.857s-2.857-1.279-2.857-2.857c0-1.578 1.279-2.857 2.857-2.857s2.857 1.279 2.857 2.857z"></path>
<path fill="none" stroke="#515576" stroke-linejoin="miter" stroke-linecap="butt" stroke-miterlimit="4" stroke-width="1.3139" d="M18.49 3.623c0-0 0-0 0-0.001 0-0.704-0.57-1.274-1.274-1.274-0.243 0-0.47 0.068-0.663 0.186l0.006-0.003 0.238 0.395c0.12-0.073 0.264-0.116 0.419-0.116 0.449 0 0.813 0.364 0.813 0.813v0h0.461z"></path>
<path fill="none" stroke="#515576" stroke-linejoin="miter" stroke-linecap="butt" stroke-miterlimit="4" stroke-width="0.6572" d="M26.643 11.507c0 1.578-1.279 2.857-2.857 2.857s-2.857-1.279-2.857-2.857c0-1.578 1.279-2.857 2.857-2.857s2.857 1.279 2.857 2.857z"></path>
<path fill="none" stroke="#515576" stroke-linejoin="miter" stroke-linecap="butt" stroke-miterlimit="4" stroke-width="1.3139" d="M25.060 11.507c-0-0.704-0.571-1.274-1.274-1.274-0.243 0-0.469 0.068-0.662 0.185l0.006-0.003 0.237 0.395c0.12-0.073 0.265-0.117 0.42-0.117 0.449 0 0.813 0.364 0.813 0.813 0 0 0 0 0 0v-0h0.461z"></path>
<path fill="none" stroke="#515576" stroke-linejoin="miter" stroke-linecap="butt" stroke-miterlimit="4" stroke-width="0.6572" d="M19.196 11.507c0 1.578-1.279 2.857-2.857 2.857s-2.857-1.279-2.857-2.857c0-1.578 1.279-2.857 2.857-2.857s2.857 1.279 2.857 2.857z"></path>
<path fill="none" stroke="#515576" stroke-linejoin="miter" stroke-linecap="butt" stroke-miterlimit="4" stroke-width="1.3139" d="M17.614 11.507c-0-0.704-0.571-1.274-1.274-1.274-0.243 0-0.47 0.068-0.663 0.186l0.006-0.003 0.238 0.395c0.12-0.074 0.265-0.117 0.42-0.117 0.449 0 0.813 0.364 0.813 0.813 0 0 0 0.001 0 0.001v-0h0.461z"></path>
<path fill="none" stroke="#515576" stroke-linejoin="miter" stroke-linecap="butt" stroke-miterlimit="4" stroke-width="0.6572" d="M17.882 18.954c0 1.578-1.279 2.857-2.857 2.857s-2.857-1.279-2.857-2.857c0-1.578 1.279-2.857 2.857-2.857s2.857 1.279 2.857 2.857z"></path>
<path fill="none" stroke="#515576" stroke-linejoin="miter" stroke-linecap="butt" stroke-miterlimit="4" stroke-width="1.3139" d="M16.3 18.954c-0-0.704-0.571-1.274-1.274-1.274-0.243 0-0.47 0.068-0.663 0.186l0.006-0.003 0.237 0.395c0.12-0.073 0.265-0.117 0.42-0.117 0.449 0 0.813 0.364 0.813 0.813 0 0 0 0 0 0v0h0.461z"></path>
</symbol>
</svg>
